<svg width="302" height="56" viewBox="0 0 302 56" fill="none" xmlns="http://www.w3.org/2000/svg">
<path d="M76.1602 29.9995V1.99953H81.3602V29.9995H76.1602ZM78.2402 18.7995V14.0795H96.4802V18.7995H78.2402ZM78.6402 6.79953V1.99953H98.2002V6.79953H78.6402Z" fill="white"/>
<path d="M104.973 29.9995V1.99953H120.133C121.973 1.99953 123.599 2.3862 125.013 3.15953C126.426 3.9062 127.546 4.9462 128.373 6.27953C129.226 7.5862 129.653 9.07953 129.653 10.7595C129.653 12.4662 129.199 14.0129 128.293 15.3995C127.413 16.7595 126.226 17.8529 124.733 18.6795C123.239 19.4795 121.586 19.8795 119.773 19.8795H110.053V29.9995H104.973ZM124.853 29.9995L116.013 17.3595L121.493 16.3595L131.133 30.0395L124.853 29.9995ZM110.053 15.3595H119.413C120.293 15.3595 121.106 15.1595 121.853 14.7595C122.599 14.3595 123.186 13.8262 123.613 13.1595C124.039 12.4662 124.253 11.7062 124.253 10.8795C124.253 10.0795 124.026 9.37286 123.573 8.75953C123.119 8.11953 122.493 7.61286 121.693 7.23953C120.919 6.8662 120.066 6.67953 119.133 6.67953H110.053V15.3595Z" fill="white"/>
<path d="M137.965 29.9995V1.99953H160.325V6.71953H143.085V25.2795H160.485V29.9995H137.965ZM140.685 17.9995V13.3595H158.285V17.9995H140.685Z" fill="white"/>
<path d="M167.832 29.9995V1.99953H190.192V6.71953H172.952V25.2795H190.352V29.9995H167.832ZM170.552 17.9995V13.3595H188.152V17.9995H170.552Z" fill="white"/>
<path d="M197.699 29.9995V1.99953H211.259C213.686 1.99953 215.846 2.35953 217.739 3.07953C219.659 3.79953 221.273 4.79953 222.579 6.07953C223.886 7.35953 224.873 8.85287 225.539 10.5595C226.206 12.2395 226.539 14.0529 226.539 15.9995C226.539 17.9729 226.206 19.7995 225.539 21.4795C224.873 23.1595 223.873 24.6395 222.539 25.9195C221.233 27.1995 219.633 28.1995 217.739 28.9195C215.846 29.6395 213.686 29.9995 211.259 29.9995H197.699ZM202.899 25.9595L202.499 25.1995H211.059C212.793 25.1995 214.286 24.9595 215.539 24.4795C216.793 23.9995 217.833 23.3462 218.659 22.5195C219.486 21.6929 220.099 20.7329 220.499 19.6395C220.899 18.5195 221.099 17.3062 221.099 15.9995C221.099 14.7195 220.899 13.5329 220.499 12.4395C220.099 11.3195 219.486 10.3462 218.659 9.51953C217.833 8.6662 216.793 7.99953 215.539 7.51953C214.286 7.03953 212.793 6.79953 211.059 6.79953H202.379L202.899 6.11953V25.9595Z" fill="white"/>
<path d="M247.12 30.3995C244.773 30.3995 242.6 30.0395 240.6 29.3195C238.627 28.5729 236.906 27.5462 235.44 26.2395C233.973 24.9329 232.84 23.4129 232.04 21.6795C231.24 19.9195 230.84 18.0129 230.84 15.9595C230.84 13.9062 231.24 12.0129 232.04 10.2795C232.84 8.51953 233.973 6.9862 235.44 5.67953C236.906 4.37286 238.627 3.35953 240.6 2.63953C242.6 1.89286 244.773 1.51953 247.12 1.51953C249.493 1.51953 251.667 1.89286 253.64 2.63953C255.64 3.35953 257.36 4.37286 258.8 5.67953C260.266 6.9862 261.4 8.51953 262.2 10.2795C263.027 12.0129 263.44 13.9062 263.44 15.9595C263.44 18.0129 263.027 19.9195 262.2 21.6795C261.4 23.4129 260.266 24.9329 258.8 26.2395C257.36 27.5462 255.64 28.5729 253.64 29.3195C251.667 30.0395 249.493 30.3995 247.12 30.3995ZM247.12 25.4395C248.747 25.4395 250.227 25.1995 251.56 24.7195C252.893 24.2395 254.053 23.5729 255.04 22.7195C256.027 21.8395 256.786 20.8262 257.32 19.6795C257.88 18.5329 258.16 17.2929 258.16 15.9595C258.16 14.6262 257.88 13.3862 257.32 12.2395C256.786 11.0929 256.027 10.0929 255.04 9.23953C254.053 8.35953 252.893 7.67953 251.56 7.19953C250.227 6.71953 248.747 6.47953 247.12 6.47953C245.52 6.47953 244.04 6.71953 242.68 7.19953C241.347 7.67953 240.187 8.3462 239.2 9.19953C238.24 10.0529 237.493 11.0529 236.96 12.1995C236.427 13.3462 236.16 14.5995 236.16 15.9595C236.16 17.2929 236.427 18.5462 236.96 19.7195C237.493 20.8662 238.24 21.8662 239.2 22.7195C240.187 23.5729 241.347 24.2395 242.68 24.7195C244.04 25.1995 245.52 25.4395 247.12 25.4395Z" fill="white"/>
<path d="M269.777 29.9995V1.99953H274.697L286.777 18.0395L284.257 17.9995L296.337 1.99953H301.177V29.9995H296.017V19.1995C296.017 16.9329 296.071 14.8262 296.177 12.8795C296.284 10.9329 296.497 8.97286 296.817 6.99953L297.377 8.83953L286.777 22.3995H284.137L273.577 8.83953L274.137 6.99953C274.457 8.9462 274.671 10.8929 274.777 12.8395C274.884 14.7595 274.937 16.8795 274.937 19.1995V29.9995H269.777Z" fill="white"/>
<path d="M83.7118 54.5998C82.6451 54.5998 81.7185 54.4665 80.9318 54.1998C80.1451 53.9465 79.4918 53.6598 78.9718 53.3398L79.5518 52.0198C79.8451 52.1931 80.1985 52.3731 80.6118 52.5598C81.0385 52.7465 81.5118 52.8998 82.0318 53.0198C82.5518 53.1398 83.1185 53.1998 83.7318 53.1998C84.5451 53.1998 85.2651 53.0398 85.8918 52.7198C86.5185 52.4131 86.9985 51.9398 87.3318 51.2998C87.6785 50.6731 87.8518 49.8865 87.8518 48.9398V47.3598L88.1118 47.3198C87.9385 47.8531 87.5918 48.3398 87.0718 48.7798C86.5651 49.2198 85.9385 49.5665 85.1918 49.8198C84.4585 50.0598 83.6651 50.1798 82.8118 50.1798C81.7051 50.1798 80.7185 49.9465 79.8518 49.4798C78.9851 49.0131 78.3051 48.3731 77.8118 47.5598C77.3318 46.7331 77.0918 45.7998 77.0918 44.7598C77.0918 43.6931 77.3451 42.7531 77.8518 41.9398C78.3718 41.1131 79.0785 40.4665 79.9718 39.9998C80.8651 39.5331 81.8718 39.2998 82.9918 39.2998C83.4051 39.2998 83.8318 39.3465 84.2718 39.4398C84.7118 39.5331 85.1451 39.6665 85.5718 39.8398C86.0118 39.9998 86.4185 40.1998 86.7918 40.4398C87.1651 40.6665 87.4718 40.9331 87.7118 41.2398C87.9651 41.5465 88.1385 41.8798 88.2318 42.2398L87.7918 42.1998L87.8518 39.5598H89.3718V48.7798C89.3718 49.7798 89.2185 50.6465 88.9118 51.3798C88.6051 52.1131 88.1851 52.7131 87.6518 53.1798C87.1318 53.6598 86.5318 54.0131 85.8518 54.2398C85.1718 54.4798 84.4585 54.5998 83.7118 54.5998ZM83.2718 48.7398C84.2051 48.7398 85.0118 48.5665 85.6918 48.2198C86.3851 47.8731 86.9251 47.3998 87.3118 46.7998C87.6985 46.1998 87.8918 45.5198 87.8918 44.7598C87.8918 43.9731 87.6985 43.2798 87.3118 42.6798C86.9251 42.0798 86.3851 41.6065 85.6918 41.2598C84.9985 40.8998 84.1985 40.7198 83.2918 40.7198C82.4118 40.7198 81.6185 40.8998 80.9118 41.2598C80.2051 41.6065 79.6518 42.0798 79.2518 42.6798C78.8518 43.2798 78.6518 43.9665 78.6518 44.7398C78.6518 45.4998 78.8451 46.1865 79.2318 46.7998C79.6318 47.3998 80.1785 47.8731 80.8718 48.2198C81.5785 48.5665 82.3785 48.7398 83.2718 48.7398Z" fill="white"/>
<path d="M96.2499 49.9998V39.5598H97.7499L97.7899 42.7198L97.4099 42.6798C97.6099 42.0398 97.9233 41.4665 98.3499 40.9598C98.7766 40.4398 99.2766 40.0331 99.8499 39.7398C100.423 39.4465 101.043 39.2998 101.71 39.2998C102.123 39.2998 102.523 39.3465 102.91 39.4398C103.297 39.5198 103.617 39.6265 103.87 39.7598L103.45 41.3798C103.183 41.2198 102.87 41.1065 102.51 41.0398C102.15 40.9731 101.823 40.9398 101.53 40.9398C100.917 40.9398 100.377 41.0398 99.9099 41.2398C99.4433 41.4265 99.0433 41.6865 98.7099 42.0198C98.3899 42.3531 98.1499 42.7265 97.9899 43.1398C97.8433 43.5531 97.7699 43.9798 97.7699 44.4198V49.9998H96.2499Z" fill="white"/>
<path d="M113.611 50.1998C112.331 50.1998 111.198 49.9665 110.211 49.4998C109.238 49.0331 108.478 48.3865 107.931 47.5598C107.385 46.7331 107.111 45.7931 107.111 44.7398C107.111 43.6865 107.385 42.7531 107.931 41.9398C108.478 41.1131 109.238 40.4665 110.211 39.9998C111.198 39.5331 112.331 39.2998 113.611 39.2998C114.878 39.2998 115.998 39.5331 116.971 39.9998C117.945 40.4665 118.711 41.1131 119.271 41.9398C119.831 42.7531 120.111 43.6865 120.111 44.7398C120.111 45.7931 119.831 46.7331 119.271 47.5598C118.711 48.3865 117.945 49.0331 116.971 49.4998C115.998 49.9665 114.878 50.1998 113.611 50.1998ZM113.611 48.7798C114.558 48.7798 115.398 48.6065 116.131 48.2598C116.878 47.9131 117.471 47.4398 117.911 46.8398C118.351 46.2265 118.565 45.5265 118.551 44.7398C118.565 43.9531 118.351 43.2598 117.911 42.6598C117.485 42.0598 116.898 41.5865 116.151 41.2398C115.405 40.8931 114.558 40.7198 113.611 40.7198C112.665 40.7198 111.818 40.8931 111.071 41.2398C110.325 41.5731 109.738 42.0465 109.311 42.6598C108.885 43.2731 108.671 43.9665 108.671 44.7398C108.658 45.5265 108.865 46.2265 109.291 46.8398C109.731 47.4398 110.325 47.9131 111.071 48.2598C111.831 48.6065 112.678 48.7798 113.611 48.7798Z" fill="white"/>
<path d="M129.883 50.1998C128.949 50.1998 128.143 50.0065 127.463 49.6198C126.796 49.2198 126.283 48.6531 125.923 47.9198C125.576 47.1865 125.403 46.3198 125.403 45.3198V39.5598H126.903V44.9198C126.903 45.7198 127.029 46.4065 127.283 46.9798C127.536 47.5531 127.909 47.9865 128.403 48.2798C128.909 48.5731 129.529 48.7198 130.263 48.7198C130.849 48.7198 131.389 48.6265 131.883 48.4398C132.376 48.2398 132.809 47.9798 133.183 47.6598C133.556 47.3398 133.849 46.9531 134.063 46.4998C134.276 46.0465 134.383 45.5731 134.383 45.0798V39.5598H135.903V49.9998H134.403L134.343 47.5998L134.623 47.4798C134.449 47.9065 134.136 48.3331 133.683 48.7598C133.243 49.1731 132.696 49.5198 132.043 49.7998C131.389 50.0665 130.669 50.1998 129.883 50.1998Z" fill="white"/>
<path d="M142.734 54.3998V39.5398H144.234L144.274 42.1398L143.974 42.1598C144.148 41.6265 144.474 41.1465 144.954 40.7198C145.448 40.2931 146.048 39.9531 146.754 39.6998C147.474 39.4465 148.248 39.3198 149.074 39.3198C150.194 39.3198 151.194 39.5531 152.074 40.0198C152.954 40.4865 153.648 41.1331 154.154 41.9598C154.661 42.7731 154.914 43.7131 154.914 44.7798C154.914 45.8198 154.668 46.7465 154.174 47.5598C153.681 48.3731 152.994 49.0131 152.114 49.4798C151.248 49.9331 150.241 50.1598 149.094 50.1598C148.228 50.1598 147.434 50.0331 146.714 49.7798C145.994 49.5131 145.388 49.1598 144.894 48.7198C144.401 48.2798 144.054 47.7998 143.854 47.2798L144.254 47.2598V54.3998H142.734ZM148.834 48.7198C149.728 48.7198 150.514 48.5531 151.194 48.2198C151.888 47.8731 152.428 47.3998 152.814 46.7998C153.201 46.1998 153.394 45.5265 153.394 44.7798C153.394 43.9931 153.194 43.2998 152.794 42.6998C152.408 42.0998 151.868 41.6265 151.174 41.2798C150.494 40.9331 149.721 40.7598 148.854 40.7598C147.934 40.7598 147.121 40.9331 146.414 41.2798C145.708 41.6265 145.154 42.0998 144.754 42.6998C144.354 43.2998 144.154 43.9865 144.154 44.7598C144.154 45.5198 144.354 46.1998 144.754 46.7998C145.154 47.3865 145.708 47.8531 146.414 48.1998C147.121 48.5465 147.928 48.7198 148.834 48.7198Z" fill="white"/>
<path fill-rule="evenodd" clip-rule="evenodd" d="M15.3433 1.31475L20.9741 11.7853L44.6328 1.03063L45.7466 1.47305L21.917 12.4577L50.8322 27.379L50.9256 29.2486L23.4152 46.9436L21.6719 46.1163L20.3421 13.5358L1.31464 30.1243L3.15464 31.594L21.6719 46.1163L23.4152 46.9436L22.4948 47.7318L21.571 47.2569L2.49517 32.3572L17.2416 54.7747L21.5718 47.2578L22.4956 47.7327L18.2496 55.018L45.5557 54.6897L22.4956 47.7327L23.416 46.9445L48.3036 54.4922L50.9264 29.2495L50.833 27.3798L45.7466 1.47388L46.8604 1.91631L51.9243 27.7489L61.7786 26.7358L61.7695 27.7164L51.9735 28.7271L49.5124 52.3526L49.4974 52.4868L49.5366 52.3985L61.7686 27.7164L61.7778 26.7358L46.8596 1.91631L44.632 1.03063L15.856 2.2679L15.3425 1.31475L45.8158 0C46.5536 0.07082 47.0388 0.37742 47.3448 0.844832L62.9342 26.7699C63.0175 27.0616 63.03 27.3532 62.9233 27.6448L49.4357 54.843C49.1681 55.3012 48.7854 55.5854 48.241 55.6287L18.8048 55.9878L17.806 55.9978C17.3442 56.0194 16.9323 55.8845 16.5747 55.5529L0.225867 30.6717C-0.058424 30.2676 -0.059261 29.8219 0.139159 29.3478L14.4079 1.82965L15.0123 2.93695L1.82154 28.2463L20.1346 12.3218L14.4079 1.82965C14.6147 1.48305 14.9415 1.33725 15.3425 1.31392L15.3433 1.31475Z" fill="white"/>
</svg>
