<svg width="415" height="728" viewBox="0 0 415 728" fill="none" xmlns="http://www.w3.org/2000/svg">
<path d="M372.83 351.59C374.607 352.235 376.311 353.141 377.52 354.188C377.522 354.189 377.524 354.191 377.527 354.193L377.53 354.196C377.542 354.205 377.56 354.219 377.584 354.238C377.631 354.275 377.703 354.331 377.798 354.402C377.987 354.545 378.267 354.75 378.627 354.997C379.347 355.491 380.383 356.151 381.645 356.811C384.178 358.134 387.581 359.437 391.144 359.439C403.432 359.443 413.624 349.251 413.619 336.963C413.615 324.675 403.416 314.476 391.128 314.472C387.565 314.471 384.163 315.771 381.631 317.093C380.369 317.752 379.333 318.411 378.614 318.905C378.254 319.151 377.974 319.356 377.785 319.499C377.691 319.57 377.619 319.626 377.571 319.663C377.548 319.682 377.53 319.696 377.518 319.705L377.514 319.708C377.512 319.71 377.51 319.711 377.508 319.713C376.299 320.759 374.596 321.664 372.819 322.307C371.038 322.953 369.141 323.351 367.535 323.351C364.195 323.349 361.518 320.673 361.517 317.333L361.5 30.0004C361.5 13.708 348.292 0.500427 332 0.500427H197.774C196.232 1.35083 195.196 2.99017 195.197 4.89282L195.197 6.42505C195.198 7.88373 195.565 9.66364 196.184 11.3688C196.803 13.0748 197.658 14.6627 198.602 15.752L198.607 15.7578L198.612 15.7638L198.224 16.0795C198.612 15.7638 198.612 15.7639 198.612 15.7641L198.613 15.7645L198.614 15.7659L198.617 15.7703L198.63 15.7863C198.641 15.8002 198.657 15.8203 198.678 15.8466C198.719 15.899 198.779 15.976 198.854 16.076C199.005 16.2759 199.219 16.5681 199.475 16.9412C199.987 17.6869 200.669 18.7578 201.35 20.0624C202.71 22.6638 204.091 26.233 204.092 30.0244C204.096 42.8681 193.608 53.3479 180.623 53.4999H180.617C167.776 53.4954 157.13 42.849 157.125 30.0089C157.124 26.2175 158.502 22.649 159.86 20.0485C160.541 18.7443 161.222 17.6739 161.734 16.9285C161.989 16.5556 162.203 16.2635 162.354 16.0637C162.429 15.9637 162.489 15.8868 162.53 15.8344C162.55 15.8082 162.566 15.788 162.578 15.7742L162.59 15.7581L162.594 15.7537L162.595 15.7524L162.595 15.752C162.596 15.7518 162.596 15.7516 162.983 16.0673L162.596 15.7516L162.601 15.7457L162.606 15.7398C163.549 14.6513 164.403 13.0642 165.021 11.3586C165.638 9.65393 166.005 7.87439 166.004 6.41571L166.004 4.88348C166.003 2.9895 164.975 1.35547 163.444 0.500427H30C13.7076 0.500427 0.5 13.708 0.5 30.0004L0.517782 314.333C0.518746 317.121 2.74742 319.35 5.53585 319.351C6.9945 319.351 8.77408 318.985 10.4788 318.367C12.1843 317.749 13.7714 316.895 14.86 315.952L14.8658 315.947L14.8718 315.942L15.1874 316.33C14.8718 315.942 14.8719 315.942 14.8721 315.942L14.8725 315.941L14.8739 315.94L14.8783 315.937L14.8943 315.924C14.9082 315.913 14.9283 315.897 14.9545 315.876C15.007 315.835 15.0839 315.776 15.1839 315.7C15.3837 315.55 15.6758 315.336 16.0486 315.08C16.794 314.569 17.8645 313.888 19.1687 313.207C21.7692 311.849 25.3376 310.471 29.1289 310.472C41.9691 310.476 52.6155 321.123 52.62 333.963C52.6244 346.803 41.9849 357.443 29.1445 357.439C25.3532 357.437 21.7839 356.056 19.1825 354.697C17.8779 354.015 16.807 353.333 16.0613 352.821C15.6883 352.565 15.3961 352.351 15.1961 352.201C15.0962 352.125 15.0192 352.066 14.9667 352.025C14.9405 352.004 14.9203 351.988 14.9065 351.977L14.8904 351.964L14.886 351.96L14.8847 351.959L14.8842 351.959C14.8841 351.959 14.8839 351.959 15.1996 351.571L14.8839 351.959L14.878 351.954L14.8721 351.949C13.7828 351.005 12.195 350.15 10.489 349.53C8.78377 348.911 7.0039 348.544 5.54523 348.543C2.75707 348.543 0.53034 350.769 0.531304 353.557L0.561501 440.894C0.561603 441.19 0.540667 441.481 0.5 441.766V645C0.5 661.293 13.7076 674.5 30 674.5H163.57H163.694L163.803 674.558C165.712 675.564 167.003 677.564 167.003 679.883L167.004 681.415C167.005 683.021 166.606 684.919 165.961 686.699C165.317 688.476 164.412 690.179 163.367 691.388L163.358 691.399C163.349 691.41 163.335 691.428 163.316 691.452C163.279 691.499 163.223 691.571 163.152 691.666C163.01 691.855 162.805 692.135 162.558 692.494C162.064 693.214 161.405 694.25 160.747 695.512C159.425 698.043 158.124 701.445 158.125 705.009C158.13 717.296 168.327 727.494 180.614 727.5C193.061 727.353 203.096 717.308 203.092 705.025C203.091 701.461 201.788 698.058 200.464 695.526C199.804 694.263 199.145 693.227 198.65 692.507C198.403 692.147 198.198 691.867 198.056 691.678C197.984 691.584 197.929 691.512 197.891 691.464C197.883 691.454 197.876 691.445 197.87 691.437C197.861 691.426 197.855 691.418 197.849 691.411L197.841 691.4C196.795 690.191 195.889 688.487 195.244 686.71C194.597 684.929 194.197 683.031 194.197 681.426L194.196 679.893C194.196 677.564 195.496 675.557 197.418 674.557L197.526 674.5H197.649H332C348.292 674.5 361.5 661.293 361.5 645V444.726V444.689L361.505 444.653C361.542 444.406 361.561 444.153 361.561 443.894L361.531 356.558C361.53 353.217 364.204 350.542 367.545 350.543C369.151 350.544 371.049 350.944 372.83 351.59Z" stroke="#F05F23"/>
</svg>
