<svg width="987" height="990" viewBox="0 0 987 990" fill="none" xmlns="http://www.w3.org/2000/svg">
<path fill-rule="evenodd" clip-rule="evenodd" d="M5.16797 502.03L0.359375 501.758C3.97601 772.024 224.19 990 495.314 990C646.586 990 782.009 922.145 872.806 815.211L5.16797 502.03ZM986.413 557.446C979.426 612.949 963.25 665.591 939.455 713.8L63.0967 505.302L986.413 557.446ZM986.413 432.554C979.385 376.719 963.056 323.781 939.028 275.337L57.7842 484.998L986.413 432.554ZM2.00231 488.149L872.178 174.051C781.385 67.5435 646.238 0 495.314 0C224.19 0 3.97601 217.976 0.359375 488.242L2.00231 488.149Z" fill="#D9D9D9"/>
</svg>
